<?xml version="1.0" encoding="utf-8"?><svg viewBox="0 0 100 91" xmlns="http://www.w3.org/2000/svg" xmlns:xlink="http://www.w3.org/1999/xlink"><style>:root>svg{display:none}:root>svg:target{display:block}</style><svg fill="none" viewBox="0 0 7 22" id="angle-border" xmlns="http://www.w3.org/2000/svg"><path d="M6 1H3a2 2 0 00-2 2v3m5 15H3a2 2 0 01-2-2v-3" stroke="#8AAEE6" stroke-width="2" stroke-linecap="round"/></svg><svg fill="none" viewBox="0 0 10 6" id="arrow" xmlns="http://www.w3.org/2000/svg"><path d="M1.5 1.25L5 4.75l3.5-3.5" stroke="#fff" stroke-opacity=".8" stroke-width="1.5" stroke-linecap="round" stroke-linejoin="round"/></svg><svg fill="none" viewBox="0 0 100 13" id="arrow-slide" xmlns="http://www.w3.org/2000/svg"><path fill-rule="evenodd" clip-rule="evenodd" d="M99.344 13c1.263 0 .381-1.417 0-1.837L89.128.315a.914.914 0 00-1.382 0 1.155 1.155 0 000 1.522l8.55 9.01H.975c-.539 0-.976.483-.976 1.077S.437 13 .977 13h98.367z" fill="#fff"/></svg><svg fill="none" viewBox="0 0 31 45" id="dress" xmlns="http://www.w3.org/2000/svg"><path d="M29.663 16.57c-.075-.078-3.004-1.815-3.004-1.815l.168-.385c.262-.597.031-1.278-.548-1.618a1.434 1.434 0 00-1.76.243l-.281.3-4.064-2.451c-.342-.196-.472-.574-.476-.95a3.06 3.06 0 00-2.994-2.456h-.57V5.66a2.854 2.854 0 002.208-2.88A2.875 2.875 0 0015.594.003a2.88 2.88 0 00-2.671 1.558.658.658 0 101.17.6 1.56 1.56 0 011.448-.843c.81.033 1.462.693 1.486 1.503a1.545 1.545 0 01-1.36 1.589.964.964 0 00-.85.953v2.076h-.5a3.07 3.07 0 00-2.982 2.4c-.09.492-.386.933-.816 1.19l-3.757 2.266-.28-.3a1.433 1.433 0 00-1.762-.242c-.578.34-.809 1.02-.547 1.618l.168.385-2.927 1.765a2.016 2.016 0 00-.97 1.717.658.658 0 101.316 0c0-.217.105-.422.277-.551h3.586l1.899 4.34a25.553 25.553 0 001.713 3.25l.552.888a32.507 32.507 0 00-7.44 13.46l-1.055 3.881c-.097.36-.024.734.202 1.03.226.295.569.465.94.465H6.43a.658.658 0 000-1.316H2.607l1.009-3.715a31.183 31.183 0 017.259-13.044c.33-.354.382-.888.126-1.3l-.65-1.043a24.236 24.236 0 01-1.624-3.083l-3.332-7.617c.046-.021.107-.008.126.013l4.522 4.826c1.365 1.456 3.354 2.292 5.457 2.292 2.103 0 4.092-.836 5.457-2.292l4.522-4.826c.02-.021.08-.034.126-.013L22.273 21.5a24.23 24.23 0 01-1.625 3.082l-.65 1.044a1.075 1.075 0 00.128 1.3 31.158 31.158 0 013.117 3.94.658.658 0 001.095-.731 32.48 32.48 0 00-3.125-3.97l.552-.888a25.549 25.549 0 001.713-3.25l1.899-4.34h3.586c.172.128.277.333.277.55a.658.658 0 101.316 0c0-.667-.34-1.297-.893-1.666zm-25.453-.2l.663-.4.175.4H4.21zm6.988-4.214a3.066 3.066 0 001.406-1.962l.016-.075a1.747 1.747 0 011.697-1.365h2.387c.808 0 1.511.562 1.692 1.345a2.287 2.287 0 001.098 1.871l3.824 2.306-1.963 2.096-.018-.001H9.644l-1.962-2.094 3.516-2.121zm4.302 7.541c-1.74 0-3.38-.684-4.497-1.876l-.126-.135h9.246l-.126.135c-1.117 1.192-2.756 1.876-4.497 1.876zm10.627-3.726l.663.4h-.838l.175-.4zM28.654 39.624a32.423 32.423 0 00-2.771-6.924.658.658 0 10-1.157.626 31.107 31.107 0 012.658 6.643l1.01 3.715H9.596a.658.658 0 100 1.316h18.968c.372 0 .715-.17.94-.465.227-.295.3-.67.203-1.03l-1.054-3.88z" fill="#fff"/></svg><svg fill="none" viewBox="0 0 89 28" id="logo" xmlns="http://www.w3.org/2000/svg"><circle cx="41" cy="14" r="9" stroke="#fff" stroke-opacity=".15" stroke-width="10"/><path d="M0 23.096V5.384h5.712c1.92 0 3.352.408 4.296 1.224.944.8 1.416 1.96 1.416 3.48v.336c0 .912-.176 1.664-.528 2.256a3.604 3.604 0 01-1.464 1.344c.832.288 1.488.752 1.968 1.392.496.624.744 1.472.744 2.544v.336c0 1.536-.472 2.72-1.416 3.552-.944.832-2.376 1.248-4.296 1.248H0zM6.12 7.448H2.352v5.736H6.12c.992 0 1.72-.264 2.184-.792.48-.544.72-1.232.72-2.064 0-.848-.24-1.536-.72-2.064-.464-.544-1.192-.816-2.184-.816zm.648 7.704H2.352v5.88h4.416c.944 0 1.672-.264 2.184-.792.528-.544.792-1.264.792-2.16 0-.912-.256-1.624-.768-2.136-.512-.528-1.248-.792-2.208-.792zM16.313 23V5.384h5.736c1.28 0 2.4.192 3.36.576.96.384 1.704.976 2.232 1.776.528.8.792 1.832.792 3.096v.384c0 1.376-.32 2.48-.96 3.312-.624.816-1.48 1.4-2.569 1.752L29.992 23h-2.855l-4.729-6.336h-3.743V23h-2.352zM22.48 7.448h-3.817v7.128h3.816c1.088 0 1.953-.336 2.593-1.008.64-.672.96-1.52.96-2.544 0-1.04-.32-1.896-.96-2.568-.64-.672-1.505-1.008-2.593-1.008zM53.602 23V5.48h3.12l5.184 11.688h.384L67.45 5.48h3.144V23h-2.352V8.48l-4.8 10.896h-2.88l-4.8-10.848V23h-2.16zM81.368 23.432c-1.456 0-2.696-.24-3.72-.72s-1.808-1.144-2.352-1.992c-.544-.848-.816-1.808-.816-2.88h2.352c0 .528.136 1.056.408 1.584.288.528.76.968 1.416 1.32.672.352 1.576.528 2.712.528 1.056 0 1.92-.152 2.592-.456.672-.32 1.168-.728 1.488-1.224.32-.512.48-1.064.48-1.656 0-.72-.312-1.312-.936-1.776-.624-.48-1.536-.776-2.736-.888l-1.944-.168c-1.552-.128-2.792-.608-3.72-1.44-.928-.832-1.392-1.928-1.392-3.288 0-1.072.256-2.008.768-2.808.528-.8 1.256-1.424 2.184-1.872C79.08 5.232 80.16 5 81.392 5c1.216 0 2.288.224 3.216.672.928.448 1.648 1.08 2.16 1.896.528.8.792 1.76.792 2.88h-2.352c0-.56-.136-1.088-.408-1.584-.256-.496-.664-.904-1.224-1.224-.56-.32-1.288-.48-2.184-.48-.864 0-1.584.152-2.16.456-.56.304-.984.704-1.272 1.2-.272.48-.408 1-.408 1.56 0 .64.248 1.208.744 1.704s1.232.784 2.208.864l1.944.168c1.792.16 3.208.656 4.248 1.488 1.056.816 1.584 1.928 1.584 3.336 0 1.072-.288 2.024-.864 2.856-.576.832-1.384 1.48-2.424 1.944-1.04.464-2.248.696-3.624.696z" fill="#fff"/><circle opacity=".6" cx="41" cy="14" r="8" stroke="#fff" stroke-width="2"/></svg><svg fill="none" viewBox="0 0 20 21" id="mail" xmlns="http://www.w3.org/2000/svg"><g stroke="#fff" stroke-width="2" stroke-linecap="round" stroke-linejoin="round"><path d="M3.333 3.833h13.334c.916 0 1.666.75 1.666 1.667v10c0 .917-.75 1.667-1.666 1.667H3.333c-.916 0-1.666-.75-1.666-1.667v-10c0-.917.75-1.667 1.666-1.667z"/><path d="M18.333 5.5L10 11.333 1.667 5.5"/></g></svg><svg fill="none" viewBox="0 0 45 45" id="make-up" xmlns="http://www.w3.org/2000/svg"><g clip-path="url(#gclip0)" fill="#fff"><path d="M44.848 21.35L37.79 10.985a11.744 11.744 0 00-6.168-4.577 11.744 11.744 0 00-7.678.236L17.5 9.108a.879.879 0 10.628 1.642l6.444-2.465a9.903 9.903 0 0111.765 3.69l4.334 6.365-7.778-5.478a6.27 6.27 0 00-5.618-.806L3.872 20.038a1.58 1.58 0 01-1.995-.969 2.008 2.008 0 011.183-2.555l8.053-3.08a.879.879 0 00-.628-1.642l-8.053 3.08a3.757 3.757 0 00-2.214 4.78 3.344 3.344 0 004.222 2.05l23.404-7.982a4.507 4.507 0 014.038.58l11.733 8.263a.876.876 0 001.123-.092.88.88 0 00.11-1.121z"/><path d="M15.147 10.566a.882.882 0 00-1.243 0 .885.885 0 00-.257.621c0 .232.094.458.257.622.164.163.39.257.622.257a.885.885 0 00.62-.257.886.886 0 00.258-.622.884.884 0 00-.257-.62zM37.92 29.769l-.032-.01a5.067 5.067 0 01-2.611-1.875 23.86 23.86 0 001.902-1.708.879.879 0 00-1.242-1.243c-3.447 3.447-7.85 5.59-12.61 6.184a22.034 22.034 0 01-2.724.169H20.6h-.002a22.015 22.015 0 01-2.724-.17c-4.76-.593-9.163-2.736-12.61-6.183a.879.879 0 00-1.243 1.243 23.854 23.854 0 001.903 1.708 5.065 5.065 0 01-2.61 1.874l-.034.01a.879.879 0 00.518 1.68l.036-.011a6.819 6.819 0 003.499-2.503c.3.207.605.407.914.6a4.724 4.724 0 01-2.766 2.963l-.272.108a.879.879 0 10.648 1.634l.272-.109a6.476 6.476 0 003.671-3.711c.338.175.68.342 1.024.5a4.33 4.33 0 01-2.324 3.559l-.053.027a.879.879 0 00.813 1.559l.052-.028a6.081 6.081 0 003.2-4.42c.372.136.748.264 1.128.381a5.85 5.85 0 01-1.537 3.751.879.879 0 001.296 1.188 7.604 7.604 0 001.973-4.475c.505.114 1.015.211 1.53.292a9.081 9.081 0 01-1.218 3.836l-.118.202a.879.879 0 001.516.89l.118-.201a10.841 10.841 0 001.448-4.518c.356.029.714.05 1.073.063v5.222a.879.879 0 101.758 0v-5.222c.359-.013.716-.034 1.073-.063A10.84 10.84 0 0024 37.479l.118.202a.878.878 0 101.516-.89l-.119-.202a9.082 9.082 0 01-1.217-3.836 23.472 23.472 0 001.53-.292 7.603 7.603 0 001.973 4.475.876.876 0 001.242.054.879.879 0 00.054-1.242 5.851 5.851 0 01-1.538-3.751c.38-.117.756-.245 1.13-.382a6.08 6.08 0 003.198 4.421l.053.028a.879.879 0 10.812-1.559l-.052-.027a4.33 4.33 0 01-2.325-3.558c.345-.159.687-.326 1.024-.501a6.476 6.476 0 003.672 3.711l.272.109a.878.878 0 10.648-1.634l-.272-.108a4.724 4.724 0 01-2.766-2.964c.309-.192.613-.392.914-.599a6.82 6.82 0 003.5 2.503l.034.01a.879.879 0 10.519-1.678z"/></g><defs><clipPath id="gclip0"><path fill="#fff" d="M0 0h45v45H0z"/></clipPath></defs></svg><svg fill="none" viewBox="0 0 31 45" id="marker" xmlns="http://www.w3.org/2000/svg"><path d="M15.5 0C7.469 0 .935 6.534.935 14.565c0 7.182 4.982 16.596 9.16 23.228a.916.916 0 101.55-.976C4.307 25.17 2.767 18.287 2.767 14.565 2.767 7.544 8.479 1.83 15.5 1.83c7.021 0 12.733 5.713 12.733 12.734 0 11.402-13.323 28.785-13.458 28.96a.916.916 0 001.45 1.12c.565-.732 13.84-18.053 13.84-30.08C30.065 6.534 23.531 0 15.5 0z" fill="#fff"/><path d="M15.5 9.92a.916.916 0 000-1.83 6.483 6.483 0 00-6.476 6.475A6.483 6.483 0 0015.5 21.04a6.483 6.483 0 006.476-6.476 6.42 6.42 0 00-1.316-3.913.916.916 0 00-1.458 1.108c.616.812.942 1.782.942 2.805a4.65 4.65 0 01-4.644 4.644 4.65 4.65 0 01-4.645-4.644A4.65 4.65 0 0115.5 9.92z" fill="#fff"/></svg><svg fill="none" viewBox="0 0 20 20" id="marker-2" xmlns="http://www.w3.org/2000/svg"><g clip-path="url(#iclip0)" stroke="#fff" stroke-width="2" stroke-linecap="round" stroke-linejoin="round"><path d="M17.5 8.334c0 5.833-7.5 10.833-7.5 10.833s-7.5-5-7.5-10.834a7.5 7.5 0 0115 0z"/><path d="M10 10.834a2.5 2.5 0 100-5 2.5 2.5 0 000 5z"/></g><defs><clipPath id="iclip0"><path fill="#fff" d="M0 0h20v20H0z"/></clipPath></defs></svg><svg fill="none" viewBox="0 0 35 45" id="model" xmlns="http://www.w3.org/2000/svg"><path d="M31.104 34.27l-.967-.342V12.637C30.137 5.668 24.467 0 17.5 0 10.532 0 4.864 5.669 4.864 12.636v8.572c0 5.216 1.734 9.073 3.353 11.536l-4.32 1.525a4.894 4.894 0 00-3.26 4.608v5.464a.66.66 0 101.318 0v-5.464c0-1.51.957-2.862 2.38-3.364l7.083-2.5a6.959 6.959 0 004.191 3.274c.374 1.303 1.222 2.602 1.343 2.783a.66.66 0 001.096 0c.121-.18.97-1.48 1.343-2.784a6.923 6.923 0 002.639-1.404c.482 1.126 1.09 2.134 1.69 3.125.2.329.396.655.587.982a4.193 4.193 0 00-1.73.488l-4.724 2.52a.748.748 0 01-.706 0l-4.724-2.52a4.148 4.148 0 00-4.12.104 4.148 4.148 0 00-2.03 3.585v1.175a.66.66 0 101.318 0v-1.175a2.84 2.84 0 011.39-2.455 2.841 2.841 0 012.821-.071l4.725 2.52c.61.325 1.337.325 1.946 0l4.725-2.52a2.809 2.809 0 011.834-.298c.57 1.19.968 2.463.968 3.999a.66.66 0 101.318 0c0-2.933-1.256-5.009-2.47-7.017-1.266-2.093-2.462-4.07-2.462-7.074v-.705a.66.66 0 00-1.318 0v.705c0 1.231.18 2.31.472 3.289a5.634 5.634 0 01-1.999 1.31 2.071 2.071 0 00-2.041-1.735c-1.026 0-1.88.751-2.04 1.733a5.755 5.755 0 01-2.867-2.44 3.483 3.483 0 001.339-2.742V27.42a9.768 9.768 0 003.568.67c4.95 0 9.057-3.684 9.723-8.454h.392c.432 0 .843-.108 1.203-.297V44.34a.66.66 0 101.318 0v-9.015l.529.187a3.573 3.573 0 012.38 3.364v5.464a.66.66 0 101.319 0v-5.464c0-2.068-1.31-3.92-3.26-4.608zm-13.604.162a.75.75 0 01.75.75c0 .63-.38 1.518-.75 2.22-.37-.702-.75-1.59-.75-2.22a.75.75 0 01.75-.75zm11.297-22.473a14.707 14.707 0 01-9.693-2.994A14.971 14.971 0 0114 1.873c1.102-.36 2.279-.555 3.5-.555 6.013 0 10.946 4.714 11.297 10.64zM12.614 29.665c0 .914-.58 1.732-1.44 2.036l-1.674.59c-1.562-2.287-3.318-5.99-3.318-11.083V19.37c.338.173.716.266 1.102.266h.492a9.84 9.84 0 004.838 7.15v2.88zm16.198-12.333c-.055.553-.58.986-1.197.986h-.297v-.039a.66.66 0 00-1.318 0c-.004 4.683-3.817 8.494-8.5 8.494-4.687 0-8.5-3.813-8.5-8.5a.66.66 0 00-1.318 0v.045h-.398A1.105 1.105 0 016.188 17.1c.055-.553.581-.986 1.197-.986h.251a2.776 2.776 0 002.773-2.773v-.705c0-.909.418-1.744 1.146-2.29a.66.66 0 00-.792-1.055 4.15 4.15 0 00-1.672 3.345v.705c0 .802-.652 1.454-1.454 1.454h-.252c-.432 0-.843.109-1.203.298v-2.457c0-3.487 1.586-6.611 4.075-8.689 1.566 3.472 3.882 6.442 6.734 8.626 2.982 2.283 6.416 3.54 9.668 3.54h1.057a1.105 1.105 0 011.096 1.219zm-1.096-2.537h-1.057c-2.964 0-6.113-1.16-8.867-3.269-2.75-2.105-4.972-4.996-6.449-8.382.455-.296.932-.56 1.428-.789a16.302 16.302 0 005.536 7.66 16.015 16.015 0 0010.511 3.263v1.784a2.423 2.423 0 00-1.102-.267z" fill="#fff"/><path d="M14.603 13.132a.66.66 0 00-.834-.417l-2.114.705a.66.66 0 00.417 1.25l2.114-.704a.66.66 0 00.417-.834zM13.932 16.864v-.705a.66.66 0 00-1.319 0v.705a.66.66 0 001.319 0zM21.727 15.5a.66.66 0 00-.659.659v.705a.66.66 0 001.319 0v-.705a.66.66 0 00-.66-.66zM20.67 19.666h-6.34a.66.66 0 00-.66.66c0 1.917 1.718 3.476 3.83 3.476s3.83-1.56 3.83-3.477a.66.66 0 00-.66-.659zm-3.17 2.818c-1.117 0-2.067-.63-2.392-1.5h4.784c-.325.87-1.274 1.5-2.392 1.5z" fill="#fff"/></svg><svg fill="none" viewBox="0 0 20 19" id="phone" xmlns="http://www.w3.org/2000/svg"><path d="M18.333 13.6v2.5a1.666 1.666 0 01-1.816 1.667 16.492 16.492 0 01-7.192-2.559 16.251 16.251 0 01-5-5 16.492 16.492 0 01-2.558-7.225 1.667 1.667 0 011.658-1.816h2.5A1.667 1.667 0 017.592 2.6c.105.8.3 1.586.583 2.342A1.667 1.667 0 017.8 6.7L6.742 7.758a13.333 13.333 0 005 5L12.8 11.7a1.667 1.667 0 011.758-.375c.756.282 1.542.478 2.342.583a1.667 1.667 0 011.433 1.692z" stroke="#fff" stroke-width="2" stroke-linecap="round" stroke-linejoin="round"/></svg><svg fill="none" viewBox="0 0 88 91" id="play" xmlns="http://www.w3.org/2000/svg"><path d="M56.2 44.001c1.333.77 1.333 2.695 0 3.464l-22.5 12.99c-1.333.77-3-.192-3-1.731V32.743c0-1.54 1.667-2.502 3-1.732L56.2 44z" fill="#fff"/></svg><svg fill="none" viewBox="0 0 87 88" id="play-part" xmlns="http://www.w3.org/2000/svg"><path opacity=".3" d="M8.698 1.445C-3.76 23.215-.694 51.449 17.895 70.038c18.589 18.59 46.823 21.655 68.593 9.197" stroke="#fff" stroke-linecap="round"/></svg></svg>